<svg xmlns:xlink="http://www.w3.org/1999/xlink" xmlns="http://www.w3.org/2000/svg" viewBox="0 0 395.52 205.5777452415812" height="50" width="50"><g><svg viewBox="0 0 395.52 205.5777452415812" height="205.5777452415812" width="395.52"><g><svg viewBox="0 0 395.52 205.5777452415812" height="205.5777452415812" width="395.52"><g id="textblocktransform"><svg viewBox="0 0 395.52 205.5777452415812" height="205.5777452415812" width="395.52" id="textblock"><g><svg viewBox="0 0 395.52 205.5777452415812" height="205.5777452415812" width="395.52"><g transform="matrix(1,0,0,1,0,0)"><svg width="395.52" viewBox="1.850000023841858 -35.20000076293945 68.30000305175781 35.5" height="205.5777452415812" data-palette-color="#000000"><path d="M35.75-24.75L28.9-24.75Q27.55-27.35 25.15-28.68 22.75-30 19.6-30L19.6-30Q16.15-30 13.45-28.45 10.75-26.9 9.22-24.05 7.7-21.2 7.7-17.45L7.7-17.45Q7.7-13.7 9.22-10.83 10.75-7.95 13.45-6.4 16.15-4.85 19.6-4.85L19.6-4.85Q24.25-4.85 27.15-7.45 30.05-10.05 30.7-14.5L30.7-14.5 17.65-14.5 17.65-19.05 36.8-19.05 36.8-14.6Q36.25-10.55 33.93-7.15 31.6-3.75 27.88-1.73 24.15 0.3 19.6 0.3L19.6 0.3Q14.7 0.3 10.65-1.98 6.6-4.25 4.23-8.3 1.85-12.35 1.85-17.45L1.85-17.45Q1.85-22.55 4.23-26.6 6.6-30.65 10.68-32.93 14.75-35.2 19.6-35.2L19.6-35.2Q25.15-35.2 29.48-32.48 33.8-29.75 35.75-24.75L35.75-24.75ZM64.45-34.75L70.15-34.75 70.15 0 64.45 0 64.45-15.2 48.1-15.2 48.1 0 42.4 0 42.4-34.75 48.1-34.75 48.1-19.85 64.45-19.85 64.45-34.75Z" opacity="1" transform="matrix(1,0,0,1,0,0)" fill="#0EA5E9" class="wordmark-text-0" data-fill-palette-color="primary" id="text-0"></path></svg></g></svg></g></svg></g></svg></g><g></g></svg></g><defs></defs></svg>